<?xml version="1.0" encoding="UTF-8"?>
<svg width="851px" height="900px" viewBox="0 0 851 900" version="1.1" xmlns="http://www.w3.org/2000/svg" xmlns:xlink="http://www.w3.org/1999/xlink">
    <!-- Generator: Sketch 55.2 (78181) - https://sketchapp.com -->
    <title>Artboard</title>
    <desc>Created with Sketch.</desc>
    <g id="Artboard" stroke="none" stroke-width="1" fill="none" fill-rule="evenodd" transform="translate(1.000000, 0.000000)">
        <g id="Down" transform="translate(-222.744521, -139.127974)" stroke-linejoin="round" stroke-width="100">
            <g id="Mask" stroke="#00FF2A" stroke-opacity="0">
                <polygon id="Path-5" points="412.749043 486.125947 535.217924 626.377341 452.749043 717.125947 452.749043 967.125947 2.00452127 967.125947 2.00452127 0.997973746 702.749043 0.997973746 702.749043 167.125947"></polygon>
                <polygon id="Path-6" points="838.742223 219.127974 1263.0018 219.127974 1263.0018 1155.52912 588.742223 1155.52912 588.742223 1019.12797 588.742223 769.127974 671.211104 678.379367 552.014521 538.127974"></polygon>
            </g>
            <polygon stroke="#50514F" points="272.744521 439.127974 772.744521 989.127974 1022.74452 989.127974 522.744521 439.127974 522.744521 189.127974 272.744521 189.127974"></polygon>
        </g>
        <g id="Up" transform="translate(-311.720533, -283.528172)">
            <g id="Mask" stroke="#171414" stroke-opacity="0">
                <polygon id="Path-7" points="314.720533 632.528172 0 632.528172 0 1513.94993 1064.72053 1513.94993 1064.72053 1182.52817 638.720533 713.528172 527.720533 866.528172"></polygon>
                <polygon id="Path-8" points="392.720533 521.528172 392.720533 0 1518.88567 0 1518.88567 1071.52817 1142.72053 1071.52817 716.720533 602.528172 610.360267 755.528172"></polygon>
            </g>
            <polygon stroke="#F45E58" stroke-width="100" stroke-linejoin="round" points="361.720533 883.528172 861.720533 333.528172 1111.72053 333.528172 611.720533 883.528172 611.720533 1133.52817 361.720533 1133.52817"></polygon>
        </g>
    </g>
</svg>
