<?xml version="1.0" standalone="no"?>
<!DOCTYPE svg PUBLIC "-//W3C//DTD SVG 20010904//EN"
 "http://www.w3.org/TR/2001/REC-SVG-20010904/DTD/svg10.dtd">
<svg version="1.0" xmlns="http://www.w3.org/2000/svg"
 width="700.000000pt" height="700.000000pt" viewBox="0 0 700.000000 700.000000"
 preserveAspectRatio="xMidYMid meet">
<metadata>
Created by potrace 1.11, written by Peter Selinger 2001-2013
</metadata>
<g transform="translate(0.000000,700.000000) scale(0.100000,-0.100000)"
fill="#000000" stroke="none">
<path d="M1653 5234 l-153 -156 -1 -112 c-1 -61 -2 -156 -4 -211 -3 -100 -10
-379 -21 -790 -6 -224 -11 -421 -13 -442 -1 -6 -173 159 -383 367 l-382 378
-118 -120 c-65 -66 -118 -123 -118 -127 0 -6 1515 -1510 1774 -1760 l35 -34
116 118 c63 65 115 122 115 127 0 5 -194 202 -432 437 l-431 428 214 1 c118 0
508 1 866 2 l653 2 44 44 43 45 89 4 c49 2 166 7 259 10 94 3 211 8 260 10 50
2 176 7 280 10 105 3 228 8 275 10 47 3 163 7 258 11 l172 6 1 -29 c1 -28 4
-370 13 -1318 3 -269 5 -509 5 -532 l1 -42 159 162 159 161 -5 631 c-2 346 -5
735 -6 863 -2 127 -1 232 2 232 3 0 77 -72 165 -160 316 -313 701 -690 707
-690 3 0 58 54 123 120 l118 120 -205 202 c-471 465 -1358 1342 -1479 1461
l-131 129 -118 -118 c-66 -65 -119 -122 -119 -125 0 -6 210 -216 613 -613 94
-93 141 -146 130 -146 -10 -1 -67 -3 -128 -5 -252 -10 -399 -15 -550 -20 -88
-3 -209 -8 -270 -10 -60 -2 -191 -7 -290 -11 -350 -12 -311 -6 -356 -50 l-39
-38 -891 -4 -890 -3 5 203 c3 112 8 295 11 408 7 226 11 375 21 765 3 143 7
281 9 308 1 26 -1 47 -4 47 -3 -1 -75 -71 -158 -156z"/>
</g>
</svg>
